<mxfile host="app.diagrams.net" modified="2021-06-07T08:13:06.709Z" agent="5.0 (Macintosh; Intel Mac OS X 10_15_7) AppleWebKit/605.1.15 (KHTML, like Gecko) Version/14.1.1 Safari/605.1.15" etag="ZEDNkPRXbSIEtUpAe3-W" version="14.7.3" type="github">
  <diagram id="f5kF9DEE1ei7IU1X9k2k" name="Page-1">
    <mxGraphModel dx="1158" dy="645" grid="1" gridSize="10" guides="1" tooltips="1" connect="1" arrows="1" fold="1" page="1" pageScale="1" pageWidth="827" pageHeight="1169" math="0" shadow="0">
      <root>
        <mxCell id="0" />
        <mxCell id="1" parent="0" />
        <mxCell id="2RssXCRPkM4zAuQoKRuj-2" value="Kreditrechner" style="swimlane;" parent="1" vertex="1">
          <mxGeometry x="80" y="110" width="680" height="360" as="geometry" />
        </mxCell>
        <mxCell id="2RssXCRPkM4zAuQoKRuj-3" value="Kreditbetrag" style="text;html=1;strokeColor=none;fillColor=none;align=left;verticalAlign=middle;whiteSpace=wrap;rounded=0;fontSize=17;" parent="2RssXCRPkM4zAuQoKRuj-2" vertex="1">
          <mxGeometry x="40" y="70" width="140" height="40" as="geometry" />
        </mxCell>
        <mxCell id="2RssXCRPkM4zAuQoKRuj-4" value="Zinssatz" style="text;html=1;strokeColor=none;fillColor=none;align=left;verticalAlign=middle;whiteSpace=wrap;rounded=0;fontSize=17;" parent="2RssXCRPkM4zAuQoKRuj-2" vertex="1">
          <mxGeometry x="40" y="110" width="140" height="40" as="geometry" />
        </mxCell>
        <mxCell id="2RssXCRPkM4zAuQoKRuj-5" value="Laufzeit" style="text;html=1;strokeColor=none;fillColor=none;align=left;verticalAlign=middle;whiteSpace=wrap;rounded=0;fontSize=17;" parent="2RssXCRPkM4zAuQoKRuj-2" vertex="1">
          <mxGeometry x="40" y="150" width="110" height="40" as="geometry" />
        </mxCell>
        <mxCell id="2RssXCRPkM4zAuQoKRuj-6" value="Zinsen" style="text;html=1;strokeColor=none;fillColor=none;align=left;verticalAlign=middle;whiteSpace=wrap;rounded=0;fontSize=17;fontStyle=1" parent="2RssXCRPkM4zAuQoKRuj-2" vertex="1">
          <mxGeometry x="40" y="300" width="100" height="40" as="geometry" />
        </mxCell>
        <mxCell id="2RssXCRPkM4zAuQoKRuj-7" value="" style="ellipse;whiteSpace=wrap;html=1;aspect=fixed;fontSize=17;align=left;" parent="2RssXCRPkM4zAuQoKRuj-2" vertex="1">
          <mxGeometry x="200" y="229" width="10" height="10" as="geometry" />
        </mxCell>
        <mxCell id="2RssXCRPkM4zAuQoKRuj-9" value="monatlich" style="text;html=1;strokeColor=none;fillColor=none;align=left;verticalAlign=middle;whiteSpace=wrap;rounded=0;labelBackgroundColor=none;fontSize=17;" parent="2RssXCRPkM4zAuQoKRuj-2" vertex="1">
          <mxGeometry x="225" y="199" width="85" height="15" as="geometry" />
        </mxCell>
        <mxCell id="2RssXCRPkM4zAuQoKRuj-10" value="jährlich" style="text;html=1;strokeColor=none;fillColor=none;align=left;verticalAlign=middle;whiteSpace=wrap;rounded=0;labelBackgroundColor=none;fontSize=17;" parent="2RssXCRPkM4zAuQoKRuj-2" vertex="1">
          <mxGeometry x="225" y="229" width="40" height="10" as="geometry" />
        </mxCell>
        <mxCell id="2RssXCRPkM4zAuQoKRuj-8" value="" style="ellipse;whiteSpace=wrap;html=1;aspect=fixed;fontSize=17;align=left;labelBackgroundColor=none;labelBorderColor=none;fillColor=#000000;" parent="2RssXCRPkM4zAuQoKRuj-2" vertex="1">
          <mxGeometry x="200" y="204" width="10" height="10" as="geometry" />
        </mxCell>
        <mxCell id="2RssXCRPkM4zAuQoKRuj-14" value="Berechnen" style="rounded=1;whiteSpace=wrap;html=1;labelBackgroundColor=none;fontSize=17;align=center;fillColor=#FFFFFF;" parent="2RssXCRPkM4zAuQoKRuj-2" vertex="1">
          <mxGeometry x="40" y="250" width="120" height="40" as="geometry" />
        </mxCell>
        <mxCell id="2RssXCRPkM4zAuQoKRuj-15" value="1000,00" style="rounded=0;whiteSpace=wrap;html=1;labelBackgroundColor=none;fontSize=17;fillColor=#FFFFFF;align=left;" parent="2RssXCRPkM4zAuQoKRuj-2" vertex="1">
          <mxGeometry x="200" y="80" width="160" height="20" as="geometry" />
        </mxCell>
        <mxCell id="2RssXCRPkM4zAuQoKRuj-16" value="0,8" style="rounded=0;whiteSpace=wrap;html=1;labelBackgroundColor=none;fontSize=17;fillColor=#FFFFFF;align=left;" parent="2RssXCRPkM4zAuQoKRuj-2" vertex="1">
          <mxGeometry x="200" y="120" width="160" height="20" as="geometry" />
        </mxCell>
        <mxCell id="2RssXCRPkM4zAuQoKRuj-17" value="24" style="rounded=0;whiteSpace=wrap;html=1;labelBackgroundColor=none;fontSize=17;fillColor=#FFFFFF;align=left;" parent="2RssXCRPkM4zAuQoKRuj-2" vertex="1">
          <mxGeometry x="200" y="160" width="160" height="20" as="geometry" />
        </mxCell>
        <mxCell id="2RssXCRPkM4zAuQoKRuj-18" value="192" style="rounded=0;whiteSpace=wrap;html=1;labelBackgroundColor=none;fontSize=17;fillColor=#FFFFFF;align=left;" parent="2RssXCRPkM4zAuQoKRuj-2" vertex="1">
          <mxGeometry x="200" y="310" width="160" height="20" as="geometry" />
        </mxCell>
        <mxCell id="2RssXCRPkM4zAuQoKRuj-20" value="Hinzufügen" style="rounded=1;whiteSpace=wrap;html=1;labelBackgroundColor=none;fontSize=17;align=center;fillColor=#FFFFFF;" parent="2RssXCRPkM4zAuQoKRuj-2" vertex="1">
          <mxGeometry x="480" y="250" width="160" height="40" as="geometry" />
        </mxCell>
        <mxCell id="2RssXCRPkM4zAuQoKRuj-21" value="Abspeichern" style="rounded=1;whiteSpace=wrap;html=1;labelBackgroundColor=none;fontSize=17;align=center;fillColor=#FFFFFF;" parent="2RssXCRPkM4zAuQoKRuj-2" vertex="1">
          <mxGeometry x="480" y="300" width="160" height="40" as="geometry" />
        </mxCell>
        <mxCell id="2RssXCRPkM4zAuQoKRuj-23" value="% p.A." style="text;html=1;strokeColor=none;fillColor=none;align=center;verticalAlign=middle;whiteSpace=wrap;rounded=0;labelBackgroundColor=none;fontSize=17;" parent="2RssXCRPkM4zAuQoKRuj-2" vertex="1">
          <mxGeometry x="360" y="120" width="60" height="20" as="geometry" />
        </mxCell>
        <mxCell id="2RssXCRPkM4zAuQoKRuj-24" value="M" style="text;html=1;strokeColor=none;fillColor=none;align=center;verticalAlign=middle;whiteSpace=wrap;rounded=0;labelBackgroundColor=none;fontSize=17;" parent="2RssXCRPkM4zAuQoKRuj-2" vertex="1">
          <mxGeometry x="360" y="160" width="30" height="20" as="geometry" />
        </mxCell>
        <mxCell id="2RssXCRPkM4zAuQoKRuj-25" value="€" style="text;html=1;strokeColor=none;fillColor=none;align=center;verticalAlign=middle;whiteSpace=wrap;rounded=0;labelBackgroundColor=none;fontSize=17;" parent="2RssXCRPkM4zAuQoKRuj-2" vertex="1">
          <mxGeometry x="360" y="310" width="30" height="20" as="geometry" />
        </mxCell>
        <mxCell id="2RssXCRPkM4zAuQoKRuj-39" value="" style="shape=table;html=1;whiteSpace=wrap;startSize=0;container=1;collapsible=0;childLayout=tableLayout;labelBackgroundColor=none;fontSize=17;fillColor=#FFFFFF;align=left;columnLines=0;" parent="2RssXCRPkM4zAuQoKRuj-2" vertex="1">
          <mxGeometry x="480" y="40" width="160" height="190" as="geometry" />
        </mxCell>
        <mxCell id="2RssXCRPkM4zAuQoKRuj-40" value="" style="shape=partialRectangle;html=1;whiteSpace=wrap;collapsible=0;dropTarget=0;pointerEvents=0;fillColor=none;top=0;left=0;bottom=0;right=0;points=[[0,0.5],[1,0.5]];portConstraint=eastwest;" parent="2RssXCRPkM4zAuQoKRuj-39" vertex="1">
          <mxGeometry width="160" height="38" as="geometry" />
        </mxCell>
        <mxCell id="2RssXCRPkM4zAuQoKRuj-41" value="" style="shape=partialRectangle;html=1;whiteSpace=wrap;connectable=0;fillColor=none;top=0;left=0;bottom=0;right=0;overflow=hidden;" parent="2RssXCRPkM4zAuQoKRuj-40" vertex="1">
          <mxGeometry width="53" height="38" as="geometry" />
        </mxCell>
        <mxCell id="2RssXCRPkM4zAuQoKRuj-42" value="" style="shape=partialRectangle;html=1;whiteSpace=wrap;connectable=0;fillColor=none;top=0;left=0;bottom=0;right=0;overflow=hidden;align=left;" parent="2RssXCRPkM4zAuQoKRuj-40" vertex="1">
          <mxGeometry x="53" width="57" height="38" as="geometry" />
        </mxCell>
        <mxCell id="2RssXCRPkM4zAuQoKRuj-43" value="" style="shape=partialRectangle;html=1;whiteSpace=wrap;connectable=0;fillColor=none;top=0;left=0;bottom=0;right=0;overflow=hidden;" parent="2RssXCRPkM4zAuQoKRuj-40" vertex="1">
          <mxGeometry x="110" width="50" height="38" as="geometry" />
        </mxCell>
        <mxCell id="2RssXCRPkM4zAuQoKRuj-60" style="shape=partialRectangle;html=1;whiteSpace=wrap;collapsible=0;dropTarget=0;pointerEvents=0;fillColor=none;top=0;left=0;bottom=0;right=0;points=[[0,0.5],[1,0.5]];portConstraint=eastwest;" parent="2RssXCRPkM4zAuQoKRuj-39" vertex="1">
          <mxGeometry y="38" width="160" height="39" as="geometry" />
        </mxCell>
        <mxCell id="2RssXCRPkM4zAuQoKRuj-61" style="shape=partialRectangle;html=1;whiteSpace=wrap;connectable=0;fillColor=none;top=0;left=0;bottom=0;right=0;overflow=hidden;" parent="2RssXCRPkM4zAuQoKRuj-60" vertex="1">
          <mxGeometry width="53" height="39" as="geometry" />
        </mxCell>
        <mxCell id="2RssXCRPkM4zAuQoKRuj-62" value="" style="shape=partialRectangle;html=1;whiteSpace=wrap;connectable=0;fillColor=none;top=0;left=0;bottom=0;right=0;overflow=hidden;" parent="2RssXCRPkM4zAuQoKRuj-60" vertex="1">
          <mxGeometry x="53" width="57" height="39" as="geometry" />
        </mxCell>
        <mxCell id="2RssXCRPkM4zAuQoKRuj-63" style="shape=partialRectangle;html=1;whiteSpace=wrap;connectable=0;fillColor=none;top=0;left=0;bottom=0;right=0;overflow=hidden;" parent="2RssXCRPkM4zAuQoKRuj-60" vertex="1">
          <mxGeometry x="110" width="50" height="39" as="geometry" />
        </mxCell>
        <mxCell id="2RssXCRPkM4zAuQoKRuj-56" style="shape=partialRectangle;html=1;whiteSpace=wrap;collapsible=0;dropTarget=0;pointerEvents=0;fillColor=none;top=0;left=0;bottom=0;right=0;points=[[0,0.5],[1,0.5]];portConstraint=eastwest;" parent="2RssXCRPkM4zAuQoKRuj-39" vertex="1">
          <mxGeometry y="77" width="160" height="38" as="geometry" />
        </mxCell>
        <mxCell id="2RssXCRPkM4zAuQoKRuj-57" style="shape=partialRectangle;html=1;whiteSpace=wrap;connectable=0;fillColor=none;top=0;left=0;bottom=0;right=0;overflow=hidden;" parent="2RssXCRPkM4zAuQoKRuj-56" vertex="1">
          <mxGeometry width="53" height="38" as="geometry" />
        </mxCell>
        <mxCell id="2RssXCRPkM4zAuQoKRuj-58" style="shape=partialRectangle;html=1;whiteSpace=wrap;connectable=0;fillColor=none;top=0;left=0;bottom=0;right=0;overflow=hidden;" parent="2RssXCRPkM4zAuQoKRuj-56" vertex="1">
          <mxGeometry x="53" width="57" height="38" as="geometry" />
        </mxCell>
        <mxCell id="2RssXCRPkM4zAuQoKRuj-59" style="shape=partialRectangle;html=1;whiteSpace=wrap;connectable=0;fillColor=none;top=0;left=0;bottom=0;right=0;overflow=hidden;" parent="2RssXCRPkM4zAuQoKRuj-56" vertex="1">
          <mxGeometry x="110" width="50" height="38" as="geometry" />
        </mxCell>
        <mxCell id="2RssXCRPkM4zAuQoKRuj-44" value="" style="shape=partialRectangle;html=1;whiteSpace=wrap;collapsible=0;dropTarget=0;pointerEvents=0;fillColor=none;top=0;left=0;bottom=0;right=0;points=[[0,0.5],[1,0.5]];portConstraint=eastwest;" parent="2RssXCRPkM4zAuQoKRuj-39" vertex="1">
          <mxGeometry y="115" width="160" height="37" as="geometry" />
        </mxCell>
        <mxCell id="2RssXCRPkM4zAuQoKRuj-45" value="" style="shape=partialRectangle;html=1;whiteSpace=wrap;connectable=0;fillColor=none;top=0;left=0;bottom=0;right=0;overflow=hidden;" parent="2RssXCRPkM4zAuQoKRuj-44" vertex="1">
          <mxGeometry width="53" height="37" as="geometry" />
        </mxCell>
        <mxCell id="2RssXCRPkM4zAuQoKRuj-46" value="" style="shape=partialRectangle;html=1;whiteSpace=wrap;connectable=0;fillColor=none;top=0;left=0;bottom=0;right=0;overflow=hidden;" parent="2RssXCRPkM4zAuQoKRuj-44" vertex="1">
          <mxGeometry x="53" width="57" height="37" as="geometry" />
        </mxCell>
        <mxCell id="2RssXCRPkM4zAuQoKRuj-47" value="" style="shape=partialRectangle;html=1;whiteSpace=wrap;connectable=0;fillColor=none;top=0;left=0;bottom=0;right=0;overflow=hidden;" parent="2RssXCRPkM4zAuQoKRuj-44" vertex="1">
          <mxGeometry x="110" width="50" height="37" as="geometry" />
        </mxCell>
        <mxCell id="2RssXCRPkM4zAuQoKRuj-48" value="" style="shape=partialRectangle;html=1;whiteSpace=wrap;collapsible=0;dropTarget=0;pointerEvents=0;fillColor=none;top=0;left=0;bottom=0;right=0;points=[[0,0.5],[1,0.5]];portConstraint=eastwest;" parent="2RssXCRPkM4zAuQoKRuj-39" vertex="1">
          <mxGeometry y="152" width="160" height="38" as="geometry" />
        </mxCell>
        <mxCell id="2RssXCRPkM4zAuQoKRuj-49" value="" style="shape=partialRectangle;html=1;whiteSpace=wrap;connectable=0;fillColor=none;top=0;left=0;bottom=0;right=0;overflow=hidden;" parent="2RssXCRPkM4zAuQoKRuj-48" vertex="1">
          <mxGeometry width="53" height="38" as="geometry" />
        </mxCell>
        <mxCell id="2RssXCRPkM4zAuQoKRuj-50" value="" style="shape=partialRectangle;html=1;whiteSpace=wrap;connectable=0;fillColor=none;top=0;left=0;bottom=0;right=0;overflow=hidden;" parent="2RssXCRPkM4zAuQoKRuj-48" vertex="1">
          <mxGeometry x="53" width="57" height="38" as="geometry" />
        </mxCell>
        <mxCell id="2RssXCRPkM4zAuQoKRuj-51" value="" style="shape=partialRectangle;html=1;whiteSpace=wrap;connectable=0;fillColor=none;top=0;left=0;bottom=0;right=0;overflow=hidden;" parent="2RssXCRPkM4zAuQoKRuj-48" vertex="1">
          <mxGeometry x="110" width="50" height="38" as="geometry" />
        </mxCell>
        <mxCell id="2RssXCRPkM4zAuQoKRuj-65" value="3307,50" style="text;html=1;strokeColor=none;fillColor=none;align=center;verticalAlign=middle;whiteSpace=wrap;rounded=0;labelBackgroundColor=none;fontSize=17;" parent="2RssXCRPkM4zAuQoKRuj-2" vertex="1">
          <mxGeometry x="480" y="88" width="140" height="20" as="geometry" />
        </mxCell>
        <mxCell id="2RssXCRPkM4zAuQoKRuj-66" value="2216,25" style="text;html=1;strokeColor=none;fillColor=none;align=center;verticalAlign=middle;whiteSpace=wrap;rounded=0;labelBackgroundColor=none;fontSize=17;" parent="2RssXCRPkM4zAuQoKRuj-2" vertex="1">
          <mxGeometry x="480" y="50" width="140" height="20" as="geometry" />
        </mxCell>
        <mxCell id="2RssXCRPkM4zAuQoKRuj-67" value="5003,16" style="text;html=1;strokeColor=none;fillColor=none;align=center;verticalAlign=middle;whiteSpace=wrap;rounded=0;labelBackgroundColor=none;fontSize=17;" parent="2RssXCRPkM4zAuQoKRuj-2" vertex="1">
          <mxGeometry x="480" y="125" width="140" height="20" as="geometry" />
        </mxCell>
        <mxCell id="2RssXCRPkM4zAuQoKRuj-68" value="3924,00" style="text;html=1;strokeColor=none;fillColor=none;align=center;verticalAlign=middle;whiteSpace=wrap;rounded=0;labelBackgroundColor=none;fontSize=17;" parent="2RssXCRPkM4zAuQoKRuj-2" vertex="1">
          <mxGeometry x="480" y="165" width="140" height="17" as="geometry" />
        </mxCell>
        <mxCell id="2RssXCRPkM4zAuQoKRuj-69" value="7506,65" style="text;html=1;strokeColor=none;fillColor=none;align=center;verticalAlign=middle;whiteSpace=wrap;rounded=0;labelBackgroundColor=none;fontSize=17;" parent="2RssXCRPkM4zAuQoKRuj-2" vertex="1">
          <mxGeometry x="480" y="204" width="140" height="20" as="geometry" />
        </mxCell>
        <mxCell id="2RssXCRPkM4zAuQoKRuj-70" value="" style="rounded=0;whiteSpace=wrap;html=1;labelBackgroundColor=none;fontSize=17;fillColor=#FFFFFF;gradientColor=none;align=left;" parent="2RssXCRPkM4zAuQoKRuj-2" vertex="1">
          <mxGeometry x="625" y="70" width="15" height="160" as="geometry" />
        </mxCell>
        <mxCell id="2RssXCRPkM4zAuQoKRuj-71" value="" style="rounded=0;whiteSpace=wrap;html=1;labelBackgroundColor=none;fontSize=17;gradientColor=none;align=left;fillColor=#CCCCCC;" parent="2RssXCRPkM4zAuQoKRuj-2" vertex="1">
          <mxGeometry x="625" y="40" width="15" height="50" as="geometry" />
        </mxCell>
        <mxCell id="2RssXCRPkM4zAuQoKRuj-73" value="Annuitätenkredit" style="rounded=0;whiteSpace=wrap;html=1;labelBackgroundColor=none;fontSize=17;gradientColor=none;align=left;fillColor=#FFFFFF;" parent="2RssXCRPkM4zAuQoKRuj-2" vertex="1">
          <mxGeometry x="40" y="40" width="320" height="20" as="geometry" />
        </mxCell>
        <mxCell id="2RssXCRPkM4zAuQoKRuj-74" value="" style="rounded=0;whiteSpace=wrap;html=1;labelBackgroundColor=none;fontSize=17;gradientColor=none;align=left;fillColor=#CCCCCC;" parent="2RssXCRPkM4zAuQoKRuj-2" vertex="1">
          <mxGeometry x="320" y="40" width="40" height="20" as="geometry" />
        </mxCell>
        <mxCell id="2RssXCRPkM4zAuQoKRuj-78" value="" style="triangle;whiteSpace=wrap;html=1;labelBackgroundColor=none;fontSize=17;gradientColor=none;align=left;fillColor=#FFFFFF;rotation=90;" parent="2RssXCRPkM4zAuQoKRuj-2" vertex="1">
          <mxGeometry x="336" y="37" width="8" height="26" as="geometry" />
        </mxCell>
        <mxCell id="2RssXCRPkM4zAuQoKRuj-80" value="Zahlungsrhythmus" style="text;html=1;strokeColor=none;fillColor=none;align=left;verticalAlign=middle;whiteSpace=wrap;rounded=0;labelBackgroundColor=none;fontSize=17;" parent="2RssXCRPkM4zAuQoKRuj-2" vertex="1">
          <mxGeometry x="40" y="199" width="150" height="20" as="geometry" />
        </mxCell>
        <mxCell id="2RssXCRPkM4zAuQoKRuj-22" value="€" style="text;html=1;strokeColor=none;fillColor=none;align=center;verticalAlign=middle;whiteSpace=wrap;rounded=0;labelBackgroundColor=none;fontSize=17;" parent="1" vertex="1">
          <mxGeometry x="440" y="190" width="30" height="20" as="geometry" />
        </mxCell>
      </root>
    </mxGraphModel>
  </diagram>
</mxfile>
